<svg xmlns="http://www.w3.org/2000/svg" viewBox="0 0 200 200" width="200" height="200">
  <!-- Outer Square Frame -->
  <rect x="10" y="10" width="180" height="180" fill="none" stroke="#1e3a8a" stroke-width="3"/>
  
  <!-- Main Triangle (pointing down) -->
  <polygon points="100,25 25,165 175,165" fill="none" stroke="#1e3a8a" stroke-width="3"/>
  
  <!-- Left building (shortest) -->
  <rect x="65" y="100" width="28" height="50" fill="none" stroke="#1e3a8a" stroke-width="2"/>
  <!-- Slanted top for left building -->
  <line x1="65" y1="100" x2="93" y2="115" stroke="#1e3a8a" stroke-width="2"/>
  
  <!-- Middle building (medium height) -->
  <rect x="102" y="80" width="28" height="70" fill="none" stroke="#1e3a8a" stroke-width="2"/>
  <!-- Slanted top for middle building -->
  <line x1="102" y1="80" x2="130" y2="95" stroke="#1e3a8a" stroke-width="2"/>
  
  <!-- Right building (tallest) -->
  <rect x="139" y="60" width="28" height="90" fill="none" stroke="#1e3a8a" stroke-width="2"/>
  <!-- Slanted top for right building -->
  <line x1="139" y1="60" x2="167" y2="75" stroke="#1e3a8a" stroke-width="2"/>
  
  <!-- Ground foundation hatching -->
  <g stroke="#1e3a8a" stroke-width="1.5" opacity="0.6">
    <line x1="30" y1="150" x2="35" y2="145"/>
    <line x1="40" y1="150" x2="45" y2="145"/>
    <line x1="50" y1="150" x2="55" y2="145"/>
    <line x1="60" y1="155" x2="65" y2="150"/>
    <line x1="70" y1="155" x2="75" y2="150"/>
    <line x1="80" y1="155" x2="85" y2="150"/>
    <line x1="90" y1="155" x2="95" y2="150"/>
    <line x1="100" y1="160" x2="105" y2="155"/>
    <line x1="110" y1="160" x2="115" y2="155"/>
    <line x1="120" y1="160" x2="125" y2="155"/>
    <line x1="130" y1="165" x2="135" y2="160"/>
    <line x1="140" y1="165" x2="145" y2="160"/>
    <line x1="150" y1="165" x2="155" y2="160"/>
    <line x1="160" y1="170" x2="165" y2="165"/>
    <line x1="170" y1="170" x2="175" y2="165"/>
  </g>
</svg>
